# xmcd CD database file
#
# Track frame offsets:
#	150
#	31670
#	64269
#	90119
#	131211
#	171248
#	191925
#	210432
#	237354
#	267883
#	292378
#
# Disc length: 4173 seconds
#
# Revision: 0
# Processed by: cddbd v1.5.2PL0 Copyright (c) Steve Scherf et al.
# Submitted via: CDex 1.70beta2
#
DISCID=a3104b0b
DTITLE=Richard Rousselet - Waitin' For You
DYEAR=1993
DGENRE=Jazz
TTITLE0=Dear Old Stockolm
TTITLE1=Bop Secret
TTITLE2=Beauty and the Prince
TTITLE3=Caravan
TTITLE4=Simone
TTITLE5=In Walked Bud
TTITLE6=Waitin' for You
TTITLE7=Tonton Félix
TTITLE8=Body and Soul
TTITLE9=Well you needn't
TTITLE10=What
EXTD=YEAR: 1993
EXTT0=
EXTT1=
EXTT2=
EXTT3=
EXTT4=
EXTT5=
EXTT6=
EXTT7=
EXTT8=
EXTT9=
EXTT10=
PLAYORDER=
